<?xml version="1.0" encoding="UTF-8"?>
<svg id="Capa_1" xmlns="http://www.w3.org/2000/svg" version="1.1" viewBox="0 0 505.6 505.6">
  <!-- Generator: Adobe Illustrator 29.1.0, SVG Export Plug-In . SVG Version: 2.1.0 Build 142)  -->
  <defs>
    <style>
      .st0 {
        fill: #fff;
      }
    </style>
  </defs>
  <path class="st0" d="M445.6,170.1l52.5-67.6c3.5-4.4,4.4-9.9,3.2-15.2-1.5-5.2-5.2-9.6-10.2-11.7L321.5,5.7c-7.3-2.9-15.7-.9-20.4,5.5l-48.7,62.4-48.7-62.6c-5-6.4-13.4-8.4-20.7-5.2L13.5,78.6c-5,2-8.7,6.7-10.2,11.9s0,11.1,3.5,15.2l52.4,64.4L3.3,246.7c-3.2,4.4-4.1,10.2-2.6,15.4s5.5,9.3,10.8,11.4l51,18.9v123.3c0,7.3,4.4,13.7,11.1,16.3l173.4,68.2c2,.9,4.4,1.2,6.4,1.2s4.4-.3,6.4-1.2l173.4-68.2c6.7-2.6,11.1-9,11.1-16.3v-123.8l49.8-18.4c5.2-2,9-6.1,10.8-11.4,1.7-5.2.6-11.1-2.6-15.4l-56.5-76.6ZM320.3,43l136.1,55.9-40.2,51.6-138.1-53.3,42.3-54.2ZM253,218.1l-126.2-45.2,121.8-49.5,129.4,49.8-125,44.9ZM184.3,43.3l40.5,52.2-136.4,55.4-39.9-49,135.8-58.6ZM84.3,194.8l140.4,50.4-41.1,54.8-138.7-51.3,39.3-53.9ZM408.9,403.8l-155.9,61.5-155.9-61.5v-98.5l86.8,32.1c2,.6,4.1,1.2,6.1,1.2,5.2,0,10.5-2.6,14-7l48.4-64.7,48.4,64.7c3.5,4.4,8.7,7,14,7s4.1-.3,6.1-1.2l88-32.3v98.8ZM320.9,300l-40.8-54.2,140.4-50.7,39,53.6-138.7,51.3Z"/>
</svg>